<svg xmlns="http://www.w3.org/2000/svg" width="1024" height="1024" viewBox="0 0 1024 1024" role="img" aria-label="Chord Library — Sovereign Strings"><title>Chord Library — Sovereign Strings</title><path fill="#321C3B" fill-rule="nonzero" d="M400 0 L497 109 C464 140 447 178 461 224 C481 282 527 307 582 296 C629 287 665 247 644 188 C694 147 750 141 800 157 C731 208 711 276 687 361 C653 476 713 559 763 650 C817 747 815 843 757 907 C690 976 555 1000 400 1000 C245 1000 110 976 43 907 C-15 843 -17 747 37 650 C87 559 147 476 113 361 C89 276 69 208 0 157 C50 141 106 147 156 188 C135 247 171 287 218 296 C273 307 319 282 339 224 C353 178 336 140 303 109 Z M400 244 C373 293 331 317 280 341 C236 362 207 385 209 422 C215 500 167 575 137 650 C91 758 123 843 218 901 C264 937 327 951 400 952 C473 951 536 937 582 901 C677 843 709 758 663 650 C633 575 585 500 591 422 C593 385 564 362 520 341 C469 317 427 293 400 244 Z M224.0 970 V478.0 C224.0 465.8497355044 233.8497355044 456 246 456 C258.1502644956 456 268.0 465.8497355044 268.0 478.0 V970 Z M301.0 970 V402.0 C301.0 389.8497355044 310.8497355044 380 323 380 C335.1502644956 380 345.0 389.8497355044 345.0 402.0 V970 Z M378.0 970 V322.0 C378.0 309.8497355044 387.8497355044 300 400 300 C412.1502644956 300 422.0 309.8497355044 422.0 322.0 V970 Z M455.0 970 V402.0 C455.0 389.8497355044 464.8497355044 380 477 380 C489.1502644956 380 499.0 389.8497355044 499.0 402.0 V970 Z M532.0 970 V478.0 C532.0 465.8497355044 541.8497355044 456 554 456 C566.1502644956 456 576.0 465.8497355044 576.0 478.0 V970 Z" transform="translate(167.936000 81.920000) scale(0.860160000)"/></svg>
